<?xml version="1.0" encoding="UTF-8"?>
<svg xmlns="http://www.w3.org/2000/svg" xmlns:xlink="http://www.w3.org/1999/xlink" width="307.957pt" height="218.889pt" viewBox="0 0 307.957 218.889">
<defs>
<g>
<g id="glyph-0-0">
<path d="M 3.609375 -6.359375 C 1.5625 -6.359375 0.203125 -5.03125 0.203125 -3.0625 C 0.203125 -1.171875 1.5 0.171875 3.3125 0.171875 C 5.328125 0.171875 6.859375 -1.3125 6.859375 -3.296875 C 6.859375 -5.171875 5.59375 -6.359375 3.609375 -6.359375 Z M 3.453125 -5.984375 C 4.984375 -5.984375 5.890625 -4.890625 5.890625 -3.015625 C 5.890625 -1.25 5.0625 -0.203125 3.671875 -0.203125 C 2.171875 -0.203125 1.15625 -1.46875 1.15625 -3.390625 C 1.15625 -5.046875 1.984375 -5.984375 3.453125 -5.984375 Z M 3.453125 -5.984375 "/>
</g>
<g id="glyph-0-1">
<path d="M 3.65625 -6.28125 L 3.375 -6.28125 C 3.203125 -5.890625 3.078125 -5.5625 3.015625 -5.421875 L 2.546875 -4.34375 L 0.953125 -0.703125 C 0.84375 -0.453125 0.65625 -0.28125 0.46875 -0.265625 L 0.140625 -0.234375 L 0.140625 0.03125 C 0.96875 0 0.96875 0 1.109375 0 C 1.234375 0 1.234375 0 2.203125 0.03125 L 2.203125 -0.234375 L 1.859375 -0.265625 C 1.546875 -0.296875 1.4375 -0.359375 1.4375 -0.5 C 1.4375 -0.625 1.5625 -1 1.75 -1.453125 L 2 -2.046875 L 4.578125 -2.046875 L 5 -1.015625 C 5.140625 -0.640625 5.1875 -0.53125 5.1875 -0.453125 C 5.1875 -0.34375 5.046875 -0.28125 4.8125 -0.265625 L 4.390625 -0.234375 L 4.390625 0.03125 C 5.5 0 5.5 0 5.640625 0 C 5.8125 0 5.8125 0 6.78125 0.03125 L 6.78125 -0.234375 L 6.46875 -0.265625 C 6.25 -0.3125 6.140625 -0.453125 5.828125 -1.1875 Z M 2.15625 -2.40625 L 3.296875 -5.078125 L 4.421875 -2.40625 Z M 2.15625 -2.40625 "/>
</g>
<g id="glyph-0-2">
<path d="M 3.03125 -6.203125 C 1.78125 -6.171875 1.78125 -6.171875 1.65625 -6.171875 C 1.484375 -6.171875 1.484375 -6.171875 0.234375 -6.203125 L 0.234375 -5.9375 L 0.5625 -5.90625 C 0.984375 -5.875 1.015625 -5.8125 1.015625 -5.109375 L 1.015625 -0.859375 C 1.015625 -0.515625 0.9375 -0.328125 0.8125 -0.265625 L 0.578125 -0.171875 L 0.578125 0.03125 C 1.203125 0.015625 1.390625 0 1.5625 0 C 1.65625 0 1.765625 0 1.859375 0.015625 C 2.578125 0.03125 2.578125 0.03125 2.671875 0.03125 C 3.328125 0.03125 3.921875 -0.140625 4.328125 -0.4375 C 4.859375 -0.8125 5.171875 -1.421875 5.171875 -2.046875 C 5.171875 -2.5 4.984375 -2.875 4.640625 -3.109375 C 4.3125 -3.359375 4 -3.4375 3.3125 -3.5 C 3.75 -3.59375 3.953125 -3.671875 4.203125 -3.84375 C 4.640625 -4.140625 4.859375 -4.515625 4.859375 -4.984375 C 4.859375 -5.78125 4.296875 -6.203125 3.25 -6.203125 Z M 1.859375 -3.25 C 2.21875 -3.265625 2.296875 -3.265625 2.46875 -3.265625 C 3.671875 -3.265625 4.25 -2.828125 4.25 -1.859375 C 4.25 -0.921875 3.625 -0.34375 2.5625 -0.34375 C 2.296875 -0.34375 2.09375 -0.375 1.859375 -0.421875 Z M 1.859375 -5.78125 C 2.09375 -5.828125 2.3125 -5.84375 2.59375 -5.84375 C 3.546875 -5.84375 3.96875 -5.53125 3.96875 -4.78125 C 3.96875 -4 3.4375 -3.578125 2.40625 -3.578125 C 2.265625 -3.578125 2.140625 -3.578125 1.859375 -3.59375 Z M 1.859375 -5.78125 "/>
</g>
<g id="glyph-0-3">
<path d="M 6.015625 -0.75 L 5.921875 -0.84375 C 5.375 -0.484375 4.75 -0.3125 4.078125 -0.3125 C 2.328125 -0.3125 1.15625 -1.46875 1.15625 -3.234375 C 1.15625 -4.890625 2.171875 -5.984375 3.71875 -5.984375 C 4.59375 -5.984375 5.5 -5.625 5.5 -5.28125 L 5.5 -4.625 L 5.78125 -4.625 C 5.796875 -5.078125 5.828125 -5.40625 5.953125 -5.984375 C 5.1875 -6.25 4.53125 -6.359375 3.890625 -6.359375 C 3.109375 -6.359375 2.359375 -6.171875 1.765625 -5.828125 C 0.734375 -5.21875 0.203125 -4.28125 0.203125 -3.0625 C 0.203125 -1.125 1.609375 0.171875 3.71875 0.171875 C 4.46875 0.171875 5.140625 0.015625 5.765625 -0.3125 Z M 6.015625 -0.75 "/>
</g>
<g id="glyph-0-4">
<path d="M 0.515625 -0.171875 L 0.515625 0.03125 C 1.546875 0 1.546875 0 1.765625 0 C 1.921875 0 2.0625 0 2.21875 0.015625 C 2.9375 0.03125 2.9375 0.03125 3.0625 0.03125 C 4.203125 0.03125 5.0625 -0.265625 5.6875 -0.890625 C 6.34375 -1.53125 6.734375 -2.5 6.734375 -3.453125 C 6.734375 -5.125 5.5 -6.203125 3.609375 -6.203125 C 3.546875 -6.203125 3.421875 -6.203125 3.265625 -6.203125 C 2.8125 -6.1875 2.4375 -6.171875 2.046875 -6.171875 C 1.71875 -6.171875 1.21875 -6.1875 0.203125 -6.203125 L 0.203125 -5.9375 L 0.5625 -5.90625 C 0.96875 -5.890625 1.015625 -5.796875 1.015625 -5.109375 L 1.015625 -0.859375 C 1.015625 -0.59375 0.9375 -0.390625 0.796875 -0.328125 Z M 1.859375 -5.78125 C 2.09375 -5.828125 2.40625 -5.84375 2.859375 -5.84375 C 3.515625 -5.84375 4.234375 -5.734375 4.609375 -5.5625 C 4.8125 -5.484375 4.984375 -5.359375 5.140625 -5.1875 C 5.5625 -4.765625 5.78125 -4.109375 5.78125 -3.21875 C 5.78125 -2.21875 5.46875 -1.4375 4.875 -0.953125 C 4.34375 -0.515625 3.796875 -0.375 2.796875 -0.375 C 2.375 -0.375 2.09375 -0.390625 1.859375 -0.4375 Z M 1.859375 -5.78125 "/>
</g>
<g id="glyph-0-5">
<path d="M 2.359375 -6.171875 C 0.96875 -6.171875 0.265625 -5.078125 0.265625 -2.90625 C 0.265625 -1.859375 0.453125 -0.953125 0.765625 -0.515625 C 1.078125 -0.078125 1.578125 0.171875 2.140625 0.171875 C 3.484375 0.171875 4.171875 -0.984375 4.171875 -3.28125 C 4.171875 -5.25 3.59375 -6.171875 2.359375 -6.171875 Z M 2.203125 -5.859375 C 3.0625 -5.859375 3.421875 -4.984375 3.421875 -2.828125 C 3.421875 -0.921875 3.078125 -0.140625 2.25 -0.140625 C 1.375 -0.140625 1.015625 -1.046875 1.015625 -3.234375 C 1.015625 -5.125 1.34375 -5.859375 2.203125 -5.859375 Z M 2.203125 -5.859375 "/>
</g>
<g id="glyph-0-6">
<path d="M 0.59375 -4.984375 L 0.6875 -4.984375 L 1.84375 -5.5 C 1.859375 -5.5 1.859375 -5.5 1.875 -5.5 C 1.921875 -5.5 1.953125 -5.421875 1.953125 -5.203125 L 1.953125 -0.859375 C 1.953125 -0.390625 1.84375 -0.296875 1.359375 -0.265625 L 0.859375 -0.234375 L 0.859375 0.03125 C 2.25 0 2.25 0 2.34375 0 C 2.453125 0 2.65625 0 2.953125 0.015625 C 3.0625 0.015625 3.375 0.015625 3.75 0.03125 L 3.75 -0.234375 L 3.28125 -0.265625 C 2.796875 -0.296875 2.703125 -0.390625 2.703125 -0.859375 L 2.703125 -6.171875 L 2.578125 -6.21875 C 1.984375 -5.921875 1.359375 -5.65625 0.53125 -5.359375 Z M 0.59375 -4.984375 "/>
</g>
<g id="glyph-0-7">
<path d="M 0.140625 -0.203125 L 0.140625 0.03125 C 1.828125 0 1.828125 0 2.140625 0 C 2.46875 0 2.46875 0 4.203125 0.03125 C 4.171875 -0.15625 4.171875 -0.25 4.171875 -0.375 C 4.171875 -0.5 4.171875 -0.578125 4.203125 -0.78125 C 3.171875 -0.734375 2.75 -0.71875 1.09375 -0.6875 L 2.71875 -2.421875 C 3.59375 -3.34375 3.859375 -3.84375 3.859375 -4.515625 C 3.859375 -5.546875 3.171875 -6.171875 2.03125 -6.171875 C 1.375 -6.171875 0.9375 -6 0.5 -5.546875 L 0.34375 -4.328125 L 0.609375 -4.328125 L 0.71875 -4.75 C 0.875 -5.265625 1.1875 -5.484375 1.796875 -5.484375 C 2.5625 -5.484375 3.0625 -5 3.0625 -4.25 C 3.0625 -3.5625 2.6875 -2.90625 1.671875 -1.828125 Z M 0.140625 -0.203125 "/>
</g>
<g id="glyph-0-8">
<path d="M 0.390625 -4.46875 L 0.65625 -4.46875 L 0.828125 -4.96875 C 0.921875 -5.28125 1.484375 -5.578125 1.953125 -5.578125 C 2.53125 -5.578125 3.015625 -5.109375 3.015625 -4.53125 C 3.015625 -3.859375 2.484375 -3.296875 1.84375 -3.296875 C 1.78125 -3.296875 1.671875 -3.3125 1.5625 -3.3125 L 1.421875 -3.328125 L 1.3125 -2.859375 L 1.375 -2.796875 C 1.71875 -2.953125 1.890625 -3 2.140625 -3 C 2.875 -3 3.3125 -2.515625 3.3125 -1.703125 C 3.3125 -0.796875 2.765625 -0.1875 1.921875 -0.1875 C 1.515625 -0.1875 1.140625 -0.328125 0.875 -0.578125 C 0.65625 -0.765625 0.546875 -0.984375 0.375 -1.46875 L 0.140625 -1.375 C 0.328125 -0.828125 0.390625 -0.5 0.453125 -0.046875 C 0.921875 0.109375 1.3125 0.171875 1.65625 0.171875 C 2.375 0.171875 3.1875 -0.21875 3.6875 -0.828125 C 3.984375 -1.1875 4.140625 -1.59375 4.140625 -2.015625 C 4.140625 -2.4375 3.96875 -2.8125 3.640625 -3.046875 C 3.421875 -3.203125 3.203125 -3.28125 2.765625 -3.359375 C 3.484375 -3.90625 3.75 -4.328125 3.75 -4.859375 C 3.75 -5.65625 3.078125 -6.171875 2.09375 -6.171875 C 1.484375 -6.171875 1.078125 -6.015625 0.640625 -5.578125 Z M 0.390625 -4.46875 "/>
</g>
<g id="glyph-0-9">
<path d="M 2.515625 -1.625 L 2.515625 -0.953125 C 2.515625 -0.40625 2.40625 -0.28125 1.96875 -0.265625 L 1.421875 -0.234375 L 1.421875 0.03125 C 2.609375 0 2.609375 0 2.828125 0 C 3.046875 0 3.046875 0 4.234375 0.03125 L 4.234375 -0.234375 L 3.796875 -0.265625 C 3.359375 -0.296875 3.265625 -0.40625 3.265625 -0.953125 L 3.265625 -1.625 C 3.796875 -1.625 3.984375 -1.609375 4.234375 -1.59375 L 4.234375 -2.21875 C 3.8125 -2.1875 3.640625 -2.1875 3.5 -2.203125 L 3.265625 -2.203125 L 3.265625 -3.4375 C 3.265625 -5.046875 3.28125 -5.8125 3.328125 -6.171875 L 3.21875 -6.21875 L 2.5625 -5.984375 L 0.015625 -1.828125 L 0.109375 -1.625 Z M 2.515625 -2.203125 L 0.578125 -2.203125 L 2.515625 -5.359375 Z M 2.515625 -2.203125 "/>
</g>
<g id="glyph-0-10">
<path d="M 2.453125 -5.9375 L 2.453125 -6.203125 C 1.46875 -6.171875 1.46875 -6.171875 1.265625 -6.171875 C 1.0625 -6.171875 1.0625 -6.171875 0.078125 -6.203125 L 0.078125 -5.9375 L 0.390625 -5.90625 C 0.578125 -5.890625 0.671875 -5.8125 0.796875 -5.546875 L 2.46875 -1.40625 C 2.75 -0.71875 2.859375 -0.40625 3 0.078125 L 3.4375 0.078125 C 3.609375 -0.46875 3.71875 -0.765625 4.015625 -1.484375 L 5.578125 -5.265625 C 5.78125 -5.75 5.890625 -5.890625 6.0625 -5.90625 L 6.328125 -5.9375 L 6.328125 -6.203125 L 5.359375 -6.171875 C 5.203125 -6.171875 5 -6.1875 4.734375 -6.203125 C 4.6875 -6.203125 4.53125 -6.203125 4.390625 -6.203125 L 4.390625 -5.9375 L 4.859375 -5.90625 C 5.0625 -5.90625 5.171875 -5.8125 5.171875 -5.671875 C 5.171875 -5.59375 5.140625 -5.46875 5.09375 -5.328125 L 3.453125 -1.078125 L 1.6875 -5.625 C 1.671875 -5.671875 1.671875 -5.6875 1.671875 -5.734375 C 1.671875 -5.84375 1.78125 -5.90625 1.953125 -5.90625 Z M 2.453125 -5.9375 "/>
</g>
<g id="glyph-0-11">
<path d="M 3.921875 -0.625 L 3.796875 -0.71875 C 3.234375 -0.375 3.015625 -0.296875 2.640625 -0.296875 C 2.046875 -0.296875 1.5625 -0.5625 1.3125 -1 C 1.140625 -1.296875 1.078125 -1.546875 1.0625 -2.0625 L 2.375 -2.0625 C 3 -2.0625 3.375 -2.09375 4 -2.1875 C 4.015625 -2.3125 4.015625 -2.390625 4.015625 -2.5 C 4.015625 -3.53125 3.359375 -4.203125 2.34375 -4.203125 C 2.015625 -4.203125 1.625 -4.09375 1.265625 -3.875 C 0.53125 -3.453125 0.234375 -2.890625 0.234375 -1.96875 C 0.234375 -1.40625 0.375 -0.921875 0.609375 -0.578125 C 0.96875 -0.09375 1.5625 0.171875 2.25 0.171875 C 2.578125 0.171875 2.90625 0.109375 3.28125 -0.046875 C 3.515625 -0.15625 3.703125 -0.265625 3.734375 -0.328125 Z M 3.21875 -2.390625 C 2.75 -2.375 2.53125 -2.375 2.21875 -2.375 C 1.796875 -2.375 1.5625 -2.375 1.078125 -2.421875 C 1.078125 -2.84375 1.125 -3.046875 1.234375 -3.28125 C 1.421875 -3.671875 1.8125 -3.90625 2.25 -3.90625 C 2.53125 -3.90625 2.765625 -3.796875 2.9375 -3.546875 C 3.125 -3.25 3.1875 -3 3.21875 -2.390625 Z M 3.21875 -2.390625 "/>
</g>
<g id="glyph-0-12">
<path d="M 0.203125 -3.59375 L 0.53125 -3.59375 C 0.890625 -3.59375 0.9375 -3.53125 0.9375 -2.9375 L 0.9375 -0.921875 C 0.9375 -0.34375 0.90625 -0.28125 0.59375 -0.265625 L 0.1875 -0.234375 L 0.1875 0.03125 C 0.828125 0.015625 1.0625 0 1.296875 0 C 1.46875 0 1.46875 0 2.578125 0.03125 L 2.578125 -0.234375 L 2.109375 -0.265625 C 1.703125 -0.296875 1.6875 -0.328125 1.6875 -0.921875 L 1.6875 -2.453125 C 1.6875 -3 2.046875 -3.4375 2.484375 -3.4375 C 2.75 -3.4375 2.9375 -3.3125 3.078125 -3.03125 L 3.28125 -3.03125 L 3.359375 -4.109375 C 3.25 -4.171875 3.09375 -4.203125 2.9375 -4.203125 C 2.65625 -4.203125 2.375 -4.0625 2.1875 -3.84375 L 1.6875 -3.25 L 1.6875 -4.171875 L 1.609375 -4.203125 C 1.140625 -4.015625 0.6875 -3.890625 0.203125 -3.84375 Z M 0.203125 -3.59375 "/>
</g>
<g id="glyph-0-13">
<path d="M 0.875 -3.421875 L 0.875 -0.84375 C 0.875 -0.171875 1.171875 0.109375 1.859375 0.109375 C 2.078125 0.109375 2.28125 0.0625 2.34375 0 L 2.765625 -0.46875 L 2.65625 -0.625 C 2.4375 -0.5 2.296875 -0.453125 2.125 -0.453125 C 1.78125 -0.453125 1.625 -0.640625 1.625 -1.078125 L 1.625 -3.421875 L 2.78125 -3.421875 L 2.859375 -3.90625 L 1.625 -3.859375 L 1.625 -4.203125 C 1.625 -4.578125 1.65625 -4.890625 1.734375 -5.46875 L 1.625 -5.5625 C 1.40625 -5.4375 1.140625 -5.3125 0.859375 -5.234375 C 0.890625 -4.953125 0.890625 -4.796875 0.890625 -4.515625 L 0.890625 -3.890625 L 0.203125 -3.578125 L 0.203125 -3.390625 Z M 0.875 -3.421875 "/>
</g>
<g id="glyph-0-14">
<path d="M 2.578125 -2.28125 L 3.859375 -3.765625 C 3.90625 -3.828125 4.015625 -3.859375 4.15625 -3.859375 L 4.28125 -3.859375 L 4.28125 -4.109375 L 3.546875 -4.109375 L 2.4375 -2.546875 L 1.765625 -3.59375 C 1.625 -3.78125 1.53125 -3.90625 1.21875 -4.203125 L 0.171875 -4.03125 L 0.21875 -3.796875 L 0.40625 -3.78125 C 0.578125 -3.765625 0.765625 -3.640625 0.859375 -3.515625 L 1.9375 -1.953125 L 0.59375 -0.375 C 0.53125 -0.296875 0.421875 -0.234375 0.328125 -0.234375 L 0.171875 -0.234375 L 0.171875 0 L 0.953125 0 C 1.015625 -0.09375 1.03125 -0.140625 1.140625 -0.296875 C 1.28125 -0.546875 1.421875 -0.765625 1.484375 -0.84375 L 2.15625 -1.71875 L 3.109375 -0.265625 L 3.125 -0.25 C 3.203125 -0.125 3.28125 -0.03125 3.34375 0.03125 C 3.8125 0 3.8125 0 3.890625 0 C 3.984375 0 3.984375 0 4.453125 0.03125 L 4.453125 -0.234375 L 4.21875 -0.265625 C 4.109375 -0.28125 4.015625 -0.34375 3.90625 -0.484375 Z M 2.578125 -2.28125 "/>
</g>
<g id="glyph-1-0">
<path d="M 1.390625 -0.90625 L 1.390625 -0.53125 C 1.390625 -0.234375 1.34375 -0.15625 1.09375 -0.15625 L 0.78125 -0.140625 L 0.78125 0.015625 C 1.453125 0 1.453125 0 1.5625 0 C 1.6875 0 1.6875 0 2.359375 0.015625 L 2.359375 -0.140625 L 2.109375 -0.15625 C 1.875 -0.171875 1.8125 -0.234375 1.8125 -0.53125 L 1.8125 -0.90625 C 2.109375 -0.90625 2.21875 -0.890625 2.359375 -0.875 L 2.359375 -1.234375 C 2.125 -1.21875 2.03125 -1.21875 1.953125 -1.21875 L 1.8125 -1.21875 L 1.8125 -1.90625 C 1.8125 -2.796875 1.828125 -3.234375 1.84375 -3.4375 L 1.796875 -3.453125 L 1.421875 -3.328125 L 0.015625 -1.015625 L 0.0625 -0.90625 Z M 1.390625 -1.21875 L 0.328125 -1.21875 L 1.390625 -2.96875 Z M 1.390625 -1.21875 "/>
</g>
<g id="glyph-1-1">
<path d="M 0.328125 -2.765625 L 0.390625 -2.765625 L 1.03125 -3.0625 C 1.03125 -3.0625 1.03125 -3.0625 1.046875 -3.0625 C 1.078125 -3.0625 1.078125 -3.015625 1.078125 -2.890625 L 1.078125 -0.484375 C 1.078125 -0.21875 1.03125 -0.171875 0.75 -0.15625 L 0.484375 -0.140625 L 0.484375 0.015625 C 1.25 0 1.25 0 1.296875 0 C 1.359375 0 1.46875 0 1.640625 0 C 1.703125 0.015625 1.875 0.015625 2.078125 0.015625 L 2.078125 -0.140625 L 1.828125 -0.15625 C 1.546875 -0.171875 1.5 -0.21875 1.5 -0.484375 L 1.5 -3.4375 L 1.4375 -3.453125 C 1.109375 -3.296875 0.75 -3.140625 0.296875 -2.984375 Z M 0.328125 -2.765625 "/>
</g>
<g id="glyph-1-2">
<path d="M 1.3125 -3.4375 C 0.53125 -3.4375 0.140625 -2.828125 0.140625 -1.609375 C 0.140625 -1.03125 0.25 -0.53125 0.421875 -0.28125 C 0.59375 -0.046875 0.875 0.09375 1.1875 0.09375 C 1.9375 0.09375 2.3125 -0.546875 2.3125 -1.828125 C 2.3125 -2.921875 2 -3.4375 1.3125 -3.4375 Z M 1.21875 -3.265625 C 1.703125 -3.265625 1.90625 -2.765625 1.90625 -1.578125 C 1.90625 -0.515625 1.703125 -0.078125 1.25 -0.078125 C 0.765625 -0.078125 0.5625 -0.578125 0.5625 -1.796875 C 0.5625 -2.84375 0.75 -3.265625 1.21875 -3.265625 Z M 1.21875 -3.265625 "/>
</g>
<g id="glyph-1-3">
<path d="M 0.21875 -2.484375 L 0.375 -2.484375 L 0.453125 -2.765625 C 0.515625 -2.9375 0.828125 -3.09375 1.09375 -3.09375 C 1.40625 -3.09375 1.671875 -2.84375 1.671875 -2.515625 C 1.671875 -2.140625 1.375 -1.828125 1.03125 -1.828125 C 0.984375 -1.828125 0.9375 -1.84375 0.875 -1.84375 L 0.796875 -1.84375 L 0.734375 -1.578125 L 0.765625 -1.5625 C 0.953125 -1.640625 1.046875 -1.671875 1.1875 -1.671875 C 1.59375 -1.671875 1.84375 -1.40625 1.84375 -0.953125 C 1.84375 -0.4375 1.53125 -0.109375 1.078125 -0.109375 C 0.84375 -0.109375 0.640625 -0.171875 0.484375 -0.3125 C 0.375 -0.421875 0.296875 -0.546875 0.203125 -0.8125 L 0.078125 -0.765625 C 0.171875 -0.453125 0.21875 -0.28125 0.25 -0.03125 C 0.515625 0.0625 0.734375 0.09375 0.921875 0.09375 C 1.3125 0.09375 1.78125 -0.125 2.046875 -0.453125 C 2.21875 -0.65625 2.296875 -0.875 2.296875 -1.109375 C 2.296875 -1.359375 2.203125 -1.5625 2.03125 -1.6875 C 1.90625 -1.78125 1.78125 -1.8125 1.53125 -1.859375 C 1.9375 -2.171875 2.078125 -2.40625 2.078125 -2.703125 C 2.078125 -3.140625 1.71875 -3.4375 1.15625 -3.4375 C 0.828125 -3.4375 0.59375 -3.34375 0.359375 -3.09375 Z M 0.21875 -2.484375 "/>
</g>
<g id="glyph-1-4">
<path d="M 0.078125 -0.109375 L 0.078125 0.015625 C 1.015625 0 1.015625 0 1.1875 0 C 1.375 0 1.375 0 2.328125 0.015625 C 2.328125 -0.09375 2.328125 -0.140625 2.328125 -0.203125 C 2.328125 -0.28125 2.328125 -0.328125 2.328125 -0.4375 C 1.765625 -0.40625 1.53125 -0.40625 0.609375 -0.390625 L 1.515625 -1.34375 C 2 -1.859375 2.140625 -2.140625 2.140625 -2.5 C 2.140625 -3.078125 1.765625 -3.4375 1.125 -3.4375 C 0.765625 -3.4375 0.515625 -3.328125 0.28125 -3.078125 L 0.1875 -2.40625 L 0.34375 -2.40625 L 0.40625 -2.640625 C 0.484375 -2.921875 0.65625 -3.046875 1 -3.046875 C 1.421875 -3.046875 1.703125 -2.78125 1.703125 -2.359375 C 1.703125 -1.984375 1.484375 -1.609375 0.921875 -1.015625 Z M 0.078125 -0.109375 "/>
</g>
<g id="glyph-2-0">
<path d="M -4.71875 -4.015625 C -5.1875 -4.015625 -5.5 -4.046875 -5.984375 -4.140625 C -6.265625 -3.421875 -6.359375 -3.015625 -6.359375 -2.515625 C -6.359375 -1.1875 -5.515625 -0.21875 -4.34375 -0.21875 C -3.90625 -0.21875 -3.578125 -0.328125 -3.34375 -0.59375 C -3.0625 -0.890625 -2.921875 -1.3125 -2.796875 -2.171875 C -2.703125 -2.875 -2.59375 -3.1875 -2.390625 -3.421875 C -2.203125 -3.65625 -1.953125 -3.765625 -1.609375 -3.765625 C -0.796875 -3.765625 -0.21875 -3.078125 -0.21875 -2.15625 C -0.21875 -1.4375 -0.5625 -0.734375 -0.9375 -0.6875 L -1.53125 -0.625 L -1.53125 -0.328125 C -1.375 -0.34375 -1.234375 -0.34375 -1.171875 -0.34375 C -0.765625 -0.34375 -0.5625 -0.328125 -0.15625 -0.265625 C 0.0625 -0.78125 0.171875 -1.296875 0.171875 -1.828125 C 0.171875 -3.375 -0.765625 -4.515625 -2.0625 -4.515625 C -2.484375 -4.515625 -2.78125 -4.390625 -3.015625 -4.140625 C -3.3125 -3.828125 -3.421875 -3.453125 -3.5625 -2.453125 C -3.703125 -1.359375 -4 -0.96875 -4.6875 -0.96875 C -5.4375 -0.96875 -5.984375 -1.53125 -5.984375 -2.328125 C -5.984375 -2.671875 -5.90625 -3 -5.78125 -3.25 C -5.625 -3.546875 -5.484375 -3.640625 -5.234375 -3.671875 L -4.71875 -3.71875 Z M -4.71875 -4.015625 "/>
</g>
<g id="glyph-2-1">
<path d="M -5.921875 -0.203125 L -5.921875 -0.703125 C -5.921875 -0.875 -5.828125 -0.9375 -5.5625 -0.9375 L -0.921875 -0.9375 C -0.34375 -0.9375 -0.28125 -0.90625 -0.265625 -0.59375 L -0.234375 -0.1875 L 0.03125 -0.1875 C 0 -1.078125 0 -1.078125 0 -1.3125 C 0 -1.53125 0 -1.53125 0.03125 -2.4375 L -0.234375 -2.4375 L -0.265625 -2.015625 C -0.28125 -1.71875 -0.34375 -1.6875 -0.921875 -1.6875 L -6.4375 -1.6875 L -6.515625 -1.609375 C -6.359375 -1.203125 -6.28125 -0.921875 -6.171875 -0.203125 Z M -5.921875 -0.203125 "/>
</g>
<g id="glyph-2-2">
<path d="M -0.734375 -2.90625 L 0.03125 -2.859375 C 0 -3.4375 0 -3.4375 0 -3.5625 C 0 -3.609375 0.015625 -3.828125 0.03125 -4.21875 L -0.234375 -4.21875 L -0.265625 -3.875 C -0.265625 -3.65625 -0.34375 -3.625 -0.78125 -3.625 L -2.421875 -3.625 C -3.734375 -3.625 -4.203125 -3.25 -4.203125 -2.203125 C -4.203125 -1.828125 -4.109375 -1.46875 -3.90625 -1.125 L -3.609375 -0.640625 L -3.03125 -0.640625 L -2.96875 -0.875 L -3.25 -1 C -3.671875 -1.1875 -3.734375 -1.28125 -3.734375 -1.6875 C -3.734375 -2.53125 -3.40625 -2.875 -2.578125 -2.90625 L -2.421875 -2.015625 C -2.203125 -0.796875 -1.78125 -0.28125 -1 -0.28125 C -0.296875 -0.28125 0.109375 -0.703125 0.109375 -1.421875 C 0.109375 -1.578125 0.078125 -1.734375 0.03125 -1.796875 Z M -1.109375 -2.90625 C -0.75 -2.640625 -0.40625 -2.078125 -0.40625 -1.734375 C -0.40625 -1.375 -0.734375 -1.0625 -1.125 -1.0625 C -1.453125 -1.0625 -1.765625 -1.234375 -1.9375 -1.5 C -2.078125 -1.734375 -2.203125 -2.21875 -2.296875 -2.90625 Z M -1.109375 -2.90625 "/>
</g>
<g id="glyph-2-3">
<path d="M -2.796875 -3.578125 C -3.203125 -3.578125 -3.5625 -3.625 -3.890625 -3.703125 C -4.109375 -3.34375 -4.203125 -3.03125 -4.203125 -2.65625 C -4.203125 -2.234375 -4.03125 -1.734375 -3.6875 -1.1875 C -3.296875 -0.5625 -2.671875 -0.234375 -1.890625 -0.234375 C -0.671875 -0.234375 0.171875 -1.078125 0.171875 -2.28125 C 0.171875 -2.75 0.015625 -3.421875 -0.125 -3.515625 L -0.40625 -3.703125 L -0.546875 -3.609375 C -0.375 -3.28125 -0.28125 -3 -0.28125 -2.671875 C -0.28125 -1.671875 -1.0625 -1.015625 -2.25 -1.015625 C -3.203125 -1.015625 -3.734375 -1.46875 -3.734375 -2.28125 C -3.734375 -2.671875 -3.5625 -3.109375 -3.34375 -3.265625 L -2.796875 -3.328125 Z M -2.796875 -3.578125 "/>
</g>
<g id="glyph-2-4">
<path d="M -5.921875 -0.203125 L -5.921875 -0.703125 C -5.921875 -0.875 -5.828125 -0.9375 -5.5625 -0.9375 L -0.921875 -0.9375 C -0.34375 -0.9375 -0.28125 -0.90625 -0.265625 -0.59375 L -0.234375 -0.1875 L 0.03125 -0.1875 C 0 -1.078125 0 -1.078125 0 -1.3125 C 0 -1.5625 0 -1.609375 0.03125 -2.40625 L -0.234375 -2.40625 L -0.265625 -2.015625 C -0.28125 -1.71875 -0.34375 -1.6875 -0.921875 -1.6875 L -2.15625 -1.6875 L 0.109375 -4.0625 L -0.15625 -4.921875 L -0.359375 -4.921875 C -0.359375 -4.703125 -0.515625 -4.453125 -0.796875 -4.15625 L -1.90625 -3.03125 C -2.21875 -2.703125 -2.34375 -2.609375 -2.515625 -2.453125 L -3.421875 -3.609375 C -3.75 -4.03125 -3.859375 -4.28125 -3.84375 -4.578125 L -4.109375 -4.578125 L -4.109375 -3.6875 C -3.546875 -3.109375 -3.140625 -2.6875 -2.875 -2.34375 L -2.34375 -1.6875 L -6.4375 -1.6875 L -6.515625 -1.609375 C -6.359375 -1.203125 -6.28125 -0.921875 -6.171875 -0.203125 Z M -5.921875 -0.203125 "/>
</g>
<g id="glyph-2-5">
<path d="M -3.859375 -4.828125 L -4.109375 -4.828125 C -4.09375 -4.296875 -4.09375 -4.140625 -4.09375 -3.984375 C -4.09375 -3.84375 -4.09375 -3.6875 -4.109375 -3.140625 L -3.859375 -3.140625 L -3.84375 -3.515625 C -3.84375 -3.65625 -3.765625 -3.734375 -3.609375 -3.734375 C -3.46875 -3.734375 -3.234375 -3.671875 -2.953125 -3.5625 L -2.015625 -3.1875 C -1.75 -3.078125 -1.5 -2.96875 -0.75 -2.625 L -3.34375 -1.5625 C -3.46875 -1.5 -3.578125 -1.484375 -3.671875 -1.484375 C -3.78125 -1.484375 -3.84375 -1.5625 -3.84375 -1.703125 L -3.859375 -2.140625 L -4.109375 -2.140625 C -4.09375 -1.265625 -4.09375 -1.265625 -4.09375 -1.09375 C -4.09375 -0.921875 -4.09375 -0.5 -4.109375 -0.046875 L -3.859375 -0.046875 L -3.84375 -0.359375 C -3.828125 -0.5 -3.78125 -0.53125 -3.546875 -0.640625 L 0.0625 -2.171875 L 0.0625 -2.625 C -0.09375 -2.6875 -0.328125 -2.765625 -0.34375 -2.765625 C -0.609375 -2.875 -0.921875 -2.984375 -0.921875 -3 L -3.25 -4.046875 C -3.671875 -4.25 -3.828125 -4.375 -3.84375 -4.5625 Z M -3.859375 -4.828125 "/>
</g>
<g id="glyph-2-6">
<path d="M -4.171875 -4.515625 L -4.203125 -4.4375 C -4.015625 -3.96875 -3.890625 -3.5 -3.84375 -3.03125 L -3.59375 -3.03125 L -3.59375 -3.359375 C -3.59375 -3.71875 -3.53125 -3.765625 -2.9375 -3.765625 L -1.46875 -3.765625 C -1.28125 -3.765625 -1.015625 -3.625 -0.8125 -3.421875 C -0.5625 -3.171875 -0.4375 -2.890625 -0.4375 -2.53125 C -0.4375 -2.21875 -0.53125 -1.96875 -0.703125 -1.828125 C -0.859375 -1.703125 -1.125 -1.640625 -1.53125 -1.640625 L -4.171875 -1.640625 L -4.203125 -1.5625 C -4.015625 -1.109375 -3.890625 -0.640625 -3.84375 -0.15625 L -3.59375 -0.15625 L -3.59375 -0.5 C -3.59375 -0.859375 -3.53125 -0.890625 -2.9375 -0.890625 L -1.421875 -0.890625 C -0.796875 -0.890625 -0.515625 -0.9375 -0.296875 -1.109375 C -0.03125 -1.296875 0.109375 -1.640625 0.109375 -2.15625 C 0.109375 -2.5625 -0.015625 -2.921875 -0.234375 -3.15625 L -0.796875 -3.765625 C -0.53125 -3.765625 -0.390625 -3.75 0.03125 -3.71875 C 0 -4.328125 0 -4.328125 0 -4.46875 C 0 -4.59375 0 -4.59375 0.03125 -5.203125 L -0.234375 -5.203125 L -0.265625 -4.84375 C -0.28125 -4.53125 -0.34375 -4.515625 -0.921875 -4.515625 Z M -4.171875 -4.515625 "/>
</g>
<g id="glyph-2-7">
<path d="M -0.625 -3.921875 L -0.71875 -3.796875 C -0.375 -3.234375 -0.296875 -3.015625 -0.296875 -2.640625 C -0.296875 -2.046875 -0.5625 -1.5625 -1 -1.3125 C -1.296875 -1.140625 -1.546875 -1.078125 -2.0625 -1.0625 L -2.0625 -2.375 C -2.0625 -3 -2.09375 -3.375 -2.1875 -4 C -2.3125 -4.015625 -2.390625 -4.015625 -2.5 -4.015625 C -3.53125 -4.015625 -4.203125 -3.359375 -4.203125 -2.34375 C -4.203125 -2.015625 -4.09375 -1.625 -3.875 -1.265625 C -3.453125 -0.53125 -2.890625 -0.234375 -1.96875 -0.234375 C -1.40625 -0.234375 -0.921875 -0.375 -0.578125 -0.609375 C -0.09375 -0.96875 0.171875 -1.5625 0.171875 -2.25 C 0.171875 -2.578125 0.109375 -2.90625 -0.046875 -3.28125 C -0.15625 -3.515625 -0.265625 -3.703125 -0.328125 -3.734375 Z M -2.390625 -3.21875 C -2.375 -2.75 -2.375 -2.53125 -2.375 -2.21875 C -2.375 -1.796875 -2.375 -1.5625 -2.421875 -1.078125 C -2.84375 -1.078125 -3.046875 -1.125 -3.28125 -1.234375 C -3.671875 -1.421875 -3.90625 -1.8125 -3.90625 -2.25 C -3.90625 -2.53125 -3.796875 -2.765625 -3.546875 -2.9375 C -3.25 -3.125 -3 -3.1875 -2.390625 -3.21875 Z M -2.390625 -3.21875 "/>
</g>
<g id="glyph-3-0">
<path d="M 0.25 -1.171875 C 0.203125 -0.765625 0.15625 -0.5 0.078125 -0.125 C 0.375 0.015625 0.640625 0.09375 0.921875 0.09375 C 1.3125 0.09375 1.6875 -0.0625 2.09375 -0.375 C 2.5 -0.6875 2.65625 -0.984375 2.65625 -1.390625 C 2.65625 -1.8125 2.40625 -2.046875 1.8125 -2.15625 L 1.46875 -2.21875 C 1 -2.3125 0.84375 -2.453125 0.84375 -2.765625 C 0.84375 -3.203125 1.203125 -3.515625 1.65625 -3.515625 C 1.984375 -3.515625 2.28125 -3.375 2.421875 -3.15625 L 2.421875 -2.71875 L 2.59375 -2.71875 C 2.625 -3 2.65625 -3.21875 2.75 -3.625 C 2.4375 -3.78125 2.21875 -3.84375 1.953125 -3.84375 C 1.53125 -3.84375 1.046875 -3.609375 0.671875 -3.21875 C 0.46875 -3 0.375 -2.8125 0.375 -2.515625 C 0.375 -2.078125 0.625 -1.8125 1.140625 -1.71875 L 1.65625 -1.625 C 2 -1.546875 2.125 -1.40625 2.125 -1.09375 C 2.125 -0.578125 1.765625 -0.234375 1.1875 -0.234375 C 0.921875 -0.234375 0.671875 -0.3125 0.453125 -0.515625 L 0.453125 -1.171875 Z M 0.25 -1.171875 "/>
</g>
<g id="glyph-3-1">
<path d="M 0.171875 -0.703125 C 0.171875 -0.546875 0.15625 -0.4375 0.109375 -0.1875 C 0.09375 -0.09375 0.078125 -0.0625 0.078125 -0.015625 C 0.1875 0.0625 0.3125 0.09375 0.421875 0.09375 C 0.671875 0.09375 0.984375 -0.140625 1.234375 -0.515625 L 1.84375 -1.453125 L 1.921875 -0.90625 C 2.03125 -0.21875 2.21875 0.09375 2.5 0.09375 C 2.671875 0.09375 2.9375 -0.046875 3.1875 -0.28125 L 3.578125 -0.625 L 3.5 -0.78125 C 3.21875 -0.546875 3.015625 -0.421875 2.890625 -0.421875 C 2.765625 -0.421875 2.671875 -0.5 2.59375 -0.65625 C 2.515625 -0.8125 2.4375 -1.109375 2.390625 -1.34375 L 2.25 -2.140625 L 2.53125 -2.53125 C 2.90625 -3.046875 3.109375 -3.234375 3.359375 -3.234375 C 3.484375 -3.234375 3.578125 -3.171875 3.625 -3.046875 L 3.734375 -3.078125 L 3.859375 -3.765625 C 3.765625 -3.8125 3.6875 -3.84375 3.625 -3.84375 C 3.296875 -3.84375 2.984375 -3.546875 2.484375 -2.828125 L 2.1875 -2.375 L 2.140625 -2.765625 C 2.046875 -3.546875 1.828125 -3.84375 1.359375 -3.84375 C 1.15625 -3.84375 0.984375 -3.78125 0.90625 -3.671875 L 0.453125 -3.015625 L 0.578125 -2.9375 C 0.828125 -3.203125 0.984375 -3.3125 1.125 -3.3125 C 1.390625 -3.3125 1.5625 -2.984375 1.703125 -2.203125 L 1.796875 -1.71875 L 1.46875 -1.21875 C 1.125 -0.6875 0.859375 -0.4375 0.640625 -0.4375 C 0.515625 -0.4375 0.4375 -0.46875 0.421875 -0.5 L 0.328125 -0.71875 Z M 0.171875 -0.703125 "/>
</g>
<g id="glyph-4-0">
<path d="M 0.40625 -3.328125 L 0.453125 -3.328125 L 1.234375 -3.671875 C 1.234375 -3.671875 1.25 -3.671875 1.25 -3.671875 C 1.28125 -3.671875 1.296875 -3.625 1.296875 -3.484375 L 1.296875 -0.578125 C 1.296875 -0.265625 1.234375 -0.203125 0.90625 -0.171875 L 0.578125 -0.15625 L 0.578125 0.015625 C 1.5 0 1.5 0 1.5625 0 C 1.640625 0 1.765625 0 1.96875 0 C 2.046875 0.015625 2.25 0.015625 2.5 0.015625 L 2.5 -0.15625 L 2.1875 -0.171875 C 1.859375 -0.203125 1.796875 -0.265625 1.796875 -0.578125 L 1.796875 -4.125 L 1.71875 -4.15625 C 1.328125 -3.953125 0.90625 -3.765625 0.359375 -3.578125 Z M 0.40625 -3.328125 "/>
</g>
<g id="glyph-4-1">
<path d="M 0.09375 -0.140625 L 0.09375 0.015625 C 1.21875 0 1.21875 0 1.4375 0 C 1.640625 0 1.640625 0 2.796875 0.015625 C 2.78125 -0.109375 2.78125 -0.171875 2.78125 -0.25 C 2.78125 -0.328125 2.78125 -0.390625 2.796875 -0.515625 C 2.109375 -0.484375 1.84375 -0.484375 0.734375 -0.453125 L 1.8125 -1.609375 C 2.40625 -2.234375 2.578125 -2.5625 2.578125 -3.015625 C 2.578125 -3.703125 2.109375 -4.125 1.359375 -4.125 C 0.921875 -4.125 0.625 -4 0.328125 -3.703125 L 0.234375 -2.890625 L 0.40625 -2.890625 L 0.484375 -3.171875 C 0.578125 -3.515625 0.796875 -3.65625 1.203125 -3.65625 C 1.71875 -3.65625 2.046875 -3.34375 2.046875 -2.828125 C 2.046875 -2.375 1.796875 -1.9375 1.109375 -1.21875 Z M 0.09375 -0.140625 "/>
</g>
<g id="glyph-4-2">
<path d="M 0.25 -2.984375 L 0.4375 -2.984375 L 0.546875 -3.3125 C 0.609375 -3.515625 1 -3.71875 1.296875 -3.71875 C 1.6875 -3.71875 2.015625 -3.40625 2.015625 -3.03125 C 2.015625 -2.578125 1.65625 -2.203125 1.234375 -2.203125 C 1.1875 -2.203125 1.125 -2.203125 1.046875 -2.21875 L 0.953125 -2.21875 L 0.875 -1.90625 L 0.921875 -1.859375 C 1.15625 -1.96875 1.265625 -2 1.421875 -2 C 1.921875 -2 2.203125 -1.6875 2.203125 -1.140625 C 2.203125 -0.53125 1.84375 -0.125 1.28125 -0.125 C 1.015625 -0.125 0.765625 -0.21875 0.59375 -0.390625 C 0.4375 -0.515625 0.359375 -0.65625 0.25 -0.96875 L 0.09375 -0.921875 C 0.21875 -0.546875 0.265625 -0.328125 0.296875 -0.03125 C 0.609375 0.078125 0.875 0.125 1.09375 0.125 C 1.578125 0.125 2.125 -0.15625 2.453125 -0.546875 C 2.65625 -0.796875 2.765625 -1.0625 2.765625 -1.34375 C 2.765625 -1.625 2.640625 -1.875 2.421875 -2.03125 C 2.28125 -2.140625 2.140625 -2.1875 1.84375 -2.234375 C 2.328125 -2.609375 2.5 -2.890625 2.5 -3.234375 C 2.5 -3.765625 2.0625 -4.125 1.390625 -4.125 C 0.984375 -4.125 0.71875 -4.015625 0.4375 -3.71875 Z M 0.25 -2.984375 "/>
</g>
<g id="glyph-5-0">
<path d="M 2.40625 1.546875 C 1.828125 0.84375 1.625 0.453125 1.40625 -0.265625 C 1.25 -0.84375 1.15625 -1.4375 1.15625 -2.125 C 1.15625 -2.78125 1.25 -3.34375 1.390625 -3.859375 C 1.609375 -4.53125 1.8125 -4.90625 2.40625 -5.578125 L 2.25 -5.78125 C 1.421875 -5.046875 1.09375 -4.609375 0.78125 -3.828125 C 0.578125 -3.296875 0.484375 -2.71875 0.484375 -2.125 C 0.484375 -1.265625 0.671875 -0.46875 1.0625 0.25 C 1.34375 0.78125 1.59375 1.09375 2.25 1.71875 Z M 2.40625 1.546875 "/>
</g>
<g id="glyph-5-1">
<path d="M 2.234375 -1.4375 L 2.234375 -0.84375 C 2.234375 -0.359375 2.140625 -0.25 1.75 -0.234375 L 1.265625 -0.21875 L 1.265625 0.03125 C 2.3125 0 2.3125 0 2.515625 0 C 2.703125 0 2.703125 0 3.765625 0.03125 L 3.765625 -0.21875 L 3.375 -0.234375 C 2.984375 -0.265625 2.90625 -0.359375 2.90625 -0.84375 L 2.90625 -1.4375 C 3.375 -1.4375 3.53125 -1.4375 3.765625 -1.40625 L 3.765625 -1.96875 C 3.390625 -1.9375 3.234375 -1.9375 3.109375 -1.953125 L 2.90625 -1.953125 L 2.90625 -3.0625 C 2.90625 -4.484375 2.921875 -5.15625 2.953125 -5.484375 L 2.859375 -5.53125 L 2.265625 -5.3125 L 0.015625 -1.625 L 0.109375 -1.4375 Z M 2.234375 -1.953125 L 0.515625 -1.953125 L 2.234375 -4.75 Z M 2.234375 -1.953125 "/>
</g>
<g id="glyph-5-2">
<path d="M 0.40625 1.71875 C 0.953125 1.1875 1.1875 0.9375 1.4375 0.546875 C 1.921875 -0.234375 2.171875 -1.15625 2.171875 -2.109375 C 2.171875 -2.71875 2.078125 -3.296875 1.859375 -3.828125 C 1.5625 -4.59375 1.234375 -5.03125 0.40625 -5.78125 L 0.25 -5.578125 C 0.84375 -4.890625 1.046875 -4.515625 1.25 -3.859375 C 1.40625 -3.34375 1.484375 -2.78125 1.484375 -2.125 C 1.484375 -1.4375 1.40625 -0.84375 1.25 -0.265625 C 1.03125 0.453125 0.828125 0.84375 0.25 1.546875 Z M 0.40625 1.71875 "/>
</g>
<g id="glyph-5-3">
<path d="M 0.34375 -3.96875 L 0.59375 -3.96875 L 0.734375 -4.421875 C 0.828125 -4.6875 1.328125 -4.953125 1.734375 -4.953125 C 2.25 -4.953125 2.671875 -4.53125 2.671875 -4.03125 C 2.671875 -3.4375 2.203125 -2.9375 1.640625 -2.9375 C 1.578125 -2.9375 1.484375 -2.9375 1.390625 -2.953125 L 1.265625 -2.953125 L 1.171875 -2.53125 L 1.234375 -2.484375 C 1.53125 -2.625 1.6875 -2.65625 1.890625 -2.65625 C 2.5625 -2.65625 2.9375 -2.234375 2.9375 -1.515625 C 2.9375 -0.703125 2.453125 -0.171875 1.71875 -0.171875 C 1.34375 -0.171875 1.015625 -0.28125 0.78125 -0.515625 C 0.59375 -0.6875 0.484375 -0.875 0.328125 -1.296875 L 0.125 -1.21875 C 0.28125 -0.734375 0.34375 -0.453125 0.390625 -0.046875 C 0.828125 0.09375 1.171875 0.15625 1.46875 0.15625 C 2.109375 0.15625 2.84375 -0.203125 3.28125 -0.734375 C 3.546875 -1.0625 3.6875 -1.40625 3.6875 -1.78125 C 3.6875 -2.171875 3.515625 -2.5 3.234375 -2.703125 C 3.03125 -2.84375 2.859375 -2.90625 2.453125 -2.984375 C 3.09375 -3.46875 3.328125 -3.84375 3.328125 -4.3125 C 3.328125 -5.015625 2.734375 -5.484375 1.859375 -5.484375 C 1.3125 -5.484375 0.953125 -5.34375 0.578125 -4.953125 Z M 0.34375 -3.96875 "/>
</g>
<g id="glyph-6-0">
<path d="M 3.40625 -1.90625 L 5.71875 -1.90625 C 5.828125 -1.90625 6 -1.90625 6 -2.078125 C 6 -2.25 5.828125 -2.25 5.71875 -2.25 L 3.40625 -2.25 L 3.40625 -4.578125 C 3.40625 -4.6875 3.40625 -4.84375 3.234375 -4.84375 C 3.0625 -4.84375 3.0625 -4.6875 3.0625 -4.578125 L 3.0625 -2.25 L 0.734375 -2.25 C 0.625 -2.25 0.46875 -2.25 0.46875 -2.078125 C 0.46875 -1.90625 0.625 -1.90625 0.734375 -1.90625 L 3.0625 -1.90625 L 3.0625 0.421875 C 3.0625 0.53125 3.0625 0.6875 3.234375 0.6875 C 3.40625 0.6875 3.40625 0.53125 3.40625 0.421875 Z M 3.40625 -1.90625 "/>
</g>
<g id="glyph-7-0">
<path d="M 5.609375 -4.9375 C 5.703125 -4.984375 5.765625 -5.015625 5.765625 -5.125 C 5.765625 -5.21875 5.703125 -5.28125 5.609375 -5.28125 C 5.5625 -5.28125 5.484375 -5.25 5.453125 -5.234375 L 0.859375 -3.0625 C 0.71875 -3 0.6875 -2.9375 0.6875 -2.875 C 0.6875 -2.796875 0.734375 -2.75 0.859375 -2.6875 L 5.453125 -0.53125 C 5.5625 -0.46875 5.578125 -0.46875 5.609375 -0.46875 C 5.6875 -0.46875 5.765625 -0.546875 5.765625 -0.640625 C 5.765625 -0.71875 5.734375 -0.765625 5.59375 -0.828125 L 1.25 -2.875 Z M 5.484375 1.140625 C 5.625 1.140625 5.765625 1.140625 5.765625 0.96875 C 5.765625 0.8125 5.59375 0.8125 5.46875 0.8125 L 0.984375 0.8125 C 0.859375 0.8125 0.6875 0.8125 0.6875 0.96875 C 0.6875 1.140625 0.84375 1.140625 0.984375 1.140625 Z M 5.484375 1.140625 "/>
</g>
</g>
<clipPath id="clip-0">
<path clip-rule="nonzero" d="M 46 40 L 263 40 L 263 180.085938 L 46 180.085938 Z M 46 40 "/>
</clipPath>
<clipPath id="clip-1">
<path clip-rule="nonzero" d="M 58 75 L 274 75 L 274 180.085938 L 58 180.085938 Z M 58 75 "/>
</clipPath>
<clipPath id="clip-2">
<path clip-rule="nonzero" d="M 58 75 L 275 75 L 275 180.085938 L 58 180.085938 Z M 58 75 "/>
</clipPath>
<clipPath id="clip-3">
<path clip-rule="nonzero" d="M 70 75 L 286 75 L 286 180.085938 L 70 180.085938 Z M 70 75 "/>
</clipPath>
<clipPath id="clip-4">
<path clip-rule="nonzero" d="M 70 75 L 287 75 L 287 180.085938 L 70 180.085938 Z M 70 75 "/>
</clipPath>
</defs>
<path fill="none" stroke-width="0.3985" stroke-linecap="butt" stroke-linejoin="miter" stroke="rgb(89.646912%, 88.78479%, 88.076782%)" stroke-opacity="1" stroke-miterlimit="10" d="M -30.804406 -0.0019375 L 236.176063 -0.0019375 M -30.804406 34.951188 L 236.176063 34.951188 M -30.804406 69.900406 L 236.176063 69.900406 M -30.804406 104.853531 L 236.176063 104.853531 M -30.804406 139.80275 L 236.176063 139.80275 " transform="matrix(1, 0, 0, -1, 63.613, 180.084)"/>
<path fill="none" stroke-width="0.19925" stroke-linecap="butt" stroke-linejoin="miter" stroke="rgb(48.234558%, 43.920898%, 40.391541%)" stroke-opacity="1" stroke-miterlimit="10" d="M 0.00028125 -4.251937 L 0.00028125 -0.0019375 M 51.344031 -4.251937 L 51.344031 -0.0019375 M 102.687781 -4.251937 L 102.687781 -0.0019375 M 154.027625 -4.251937 L 154.027625 -0.0019375 M 205.371375 -4.251937 L 205.371375 -0.0019375 M 0.00028125 172.017594 L 0.00028125 167.763688 M 51.344031 172.017594 L 51.344031 167.763688 M 102.687781 172.017594 L 102.687781 167.763688 M 154.027625 172.017594 L 154.027625 167.763688 M 205.371375 172.017594 L 205.371375 167.763688 " transform="matrix(1, 0, 0, -1, 63.613, 180.084)"/>
<path fill="none" stroke-width="0.19925" stroke-linecap="butt" stroke-linejoin="miter" stroke="rgb(48.234558%, 43.920898%, 40.391541%)" stroke-opacity="1" stroke-miterlimit="10" d="M -30.804406 -0.0019375 L -26.5505 -0.0019375 M -30.804406 34.951188 L -26.5505 34.951188 M -30.804406 69.900406 L -26.5505 69.900406 M -30.804406 104.853531 L -26.5505 104.853531 M -30.804406 139.80275 L -26.5505 139.80275 M 236.176063 -0.0019375 L 231.926063 -0.0019375 M 236.176063 34.951188 L 231.926063 34.951188 M 236.176063 69.900406 L 231.926063 69.900406 M 236.176063 104.853531 L 231.926063 104.853531 M 236.176063 139.80275 L 231.926063 139.80275 " transform="matrix(1, 0, 0, -1, 63.613, 180.084)"/>
<path fill="none" stroke-width="0.3985" stroke-linecap="butt" stroke-linejoin="miter" stroke="rgb(48.234558%, 43.920898%, 40.391541%)" stroke-opacity="1" stroke-miterlimit="10" d="M -30.804406 -0.0019375 L -30.804406 167.763688 L 236.176063 167.763688 L 236.176063 -0.0019375 Z M -30.804406 -0.0019375 " transform="matrix(1, 0, 0, -1, 63.613, 180.084)"/>
<g fill="rgb(23.922729%, 20.783997%, 18.824768%)" fill-opacity="1">
<use xlink:href="#glyph-0-0" x="60.09" y="194.213"/>
</g>
<g fill="rgb(23.922729%, 20.783997%, 18.824768%)" fill-opacity="1">
<use xlink:href="#glyph-0-1" x="111.468" y="194.114"/>
</g>
<g fill="rgb(23.922729%, 20.783997%, 18.824768%)" fill-opacity="1">
<use xlink:href="#glyph-0-2" x="163.559" y="194.114"/>
</g>
<g fill="rgb(23.922729%, 20.783997%, 18.824768%)" fill-opacity="1">
<use xlink:href="#glyph-0-3" x="214.462" y="194.213"/>
</g>
<g fill="rgb(23.922729%, 20.783997%, 18.824768%)" fill-opacity="1">
<use xlink:href="#glyph-0-4" x="265.513" y="194.114"/>
</g>
<g fill="rgb(48.234558%, 43.920898%, 40.391541%)" fill-opacity="1">
<use xlink:href="#glyph-0-5" x="24.806" y="183.074"/>
</g>
<g fill="rgb(48.234558%, 43.920898%, 40.391541%)" fill-opacity="1">
<use xlink:href="#glyph-0-6" x="24.806" y="148.236"/>
</g>
<g fill="rgb(48.234558%, 43.920898%, 40.391541%)" fill-opacity="1">
<use xlink:href="#glyph-0-7" x="24.806" y="113.218"/>
</g>
<g fill="rgb(48.234558%, 43.920898%, 40.391541%)" fill-opacity="1">
<use xlink:href="#glyph-0-8" x="24.806" y="78.223"/>
</g>
<g fill="rgb(48.234558%, 43.920898%, 40.391541%)" fill-opacity="1">
<use xlink:href="#glyph-0-9" x="24.806" y="43.385"/>
</g>
<g clip-path="url(#clip-0)">
<path fill-rule="nonzero" fill="rgb(72.155762%, 59.999084%, 36.863708%)" fill-opacity="0.85" stroke-width="0.3985" stroke-linecap="butt" stroke-linejoin="miter" stroke="rgb(57.725525%, 47.999573%, 29.489136%)" stroke-opacity="1" stroke-miterlimit="10" d="M -16.937219 -0.0019375 L -6.972375 -0.0019375 L -6.972375 139.80275 L -16.937219 139.80275 Z M 34.406531 -0.0019375 L 44.367469 -0.0019375 L 44.367469 34.951188 L 34.406531 34.951188 Z M 85.750281 -0.0019375 L 95.711219 -0.0019375 Z M 137.094031 -0.0019375 L 147.054969 -0.0019375 Z M 188.437781 -0.0019375 L 198.398719 -0.0019375 L 198.398719 34.951188 L 188.437781 34.951188 Z M 188.437781 -0.0019375 " transform="matrix(1, 0, 0, -1, 63.613, 180.084)"/>
</g>
<g clip-path="url(#clip-1)">
<path fill-rule="nonzero" fill="rgb(67.843628%, 51.763916%, 50.193787%)" fill-opacity="0.85" d="M 58.632812 180.085938 L 68.59375 180.085938 L 68.59375 75.230469 L 58.632812 75.230469 Z M 109.976562 180.085938 L 119.9375 180.085938 Z M 161.316406 180.085938 L 171.28125 180.085938 Z M 212.660156 180.085938 L 222.625 180.085938 L 222.625 110.183594 L 212.660156 110.183594 Z M 264.003906 180.085938 L 273.96875 180.085938 L 273.96875 75.230469 L 264.003906 75.230469 Z M 264.003906 180.085938 "/>
</g>
<g clip-path="url(#clip-2)">
<path fill="none" stroke-width="0.3985" stroke-linecap="butt" stroke-linejoin="miter" stroke="rgb(54.275513%, 41.410828%, 40.156555%)" stroke-opacity="1" stroke-miterlimit="10" d="M -4.980187 -0.0019375 L 4.98075 -0.0019375 L 4.98075 104.853531 L -4.980187 104.853531 Z M 46.363563 -0.0019375 L 56.3245 -0.0019375 Z M 97.703406 -0.0019375 L 107.66825 -0.0019375 Z M 149.047156 -0.0019375 L 159.012 -0.0019375 L 159.012 69.900406 L 149.047156 69.900406 Z M 200.390906 -0.0019375 L 210.35575 -0.0019375 L 210.35575 104.853531 L 200.390906 104.853531 Z M 200.390906 -0.0019375 " transform="matrix(1, 0, 0, -1, 63.613, 180.084)"/>
</g>
<g clip-path="url(#clip-3)">
<path fill-rule="nonzero" fill="rgb(47.840881%, 60.392761%, 49.412537%)" fill-opacity="0.85" d="M 70.585938 180.085938 L 80.550781 180.085938 L 80.550781 75.230469 L 70.585938 75.230469 Z M 121.929688 180.085938 L 131.894531 180.085938 L 131.894531 75.230469 L 121.929688 75.230469 Z M 173.273438 180.085938 L 183.234375 180.085938 L 183.234375 110.183594 L 173.273438 110.183594 Z M 224.617188 180.085938 L 234.578125 180.085938 Z M 275.960938 180.085938 L 285.921875 180.085938 Z M 275.960938 180.085938 "/>
</g>
<g clip-path="url(#clip-4)">
<path fill="none" stroke-width="0.3985" stroke-linecap="butt" stroke-linejoin="miter" stroke="rgb(38.273621%, 48.313904%, 39.529419%)" stroke-opacity="1" stroke-miterlimit="10" d="M 6.972938 -0.0019375 L 16.937781 -0.0019375 L 16.937781 104.853531 L 6.972938 104.853531 Z M 58.316688 -0.0019375 L 68.281531 -0.0019375 L 68.281531 104.853531 L 58.316688 104.853531 Z M 109.660438 -0.0019375 L 119.621375 -0.0019375 L 119.621375 69.900406 L 109.660438 69.900406 Z M 161.004188 -0.0019375 L 170.965125 -0.0019375 Z M 212.347938 -0.0019375 L 222.308875 -0.0019375 Z M 212.347938 -0.0019375 " transform="matrix(1, 0, 0, -1, 63.613, 180.084)"/>
</g>
<g fill="rgb(23.922729%, 20.783997%, 18.824768%)" fill-opacity="0.85">
<use xlink:href="#glyph-1-0" x="50.413" y="36.733"/>
</g>
<g fill="rgb(23.922729%, 20.783997%, 18.824768%)" fill-opacity="0.85">
<use xlink:href="#glyph-1-1" x="101.755" y="141.584"/>
</g>
<g fill="rgb(23.922729%, 20.783997%, 18.824768%)" fill-opacity="0.85">
<use xlink:href="#glyph-1-2" x="153.098" y="176.485"/>
</g>
<g fill="rgb(23.922729%, 20.783997%, 18.824768%)" fill-opacity="0.85">
<use xlink:href="#glyph-1-2" x="204.44" y="176.485"/>
</g>
<g fill="rgb(23.922729%, 20.783997%, 18.824768%)" fill-opacity="0.85">
<use xlink:href="#glyph-1-1" x="255.783" y="141.584"/>
</g>
<g fill="rgb(23.922729%, 20.783997%, 18.824768%)" fill-opacity="0.85">
<use xlink:href="#glyph-1-3" x="62.368" y="71.633"/>
</g>
<g fill="rgb(23.922729%, 20.783997%, 18.824768%)" fill-opacity="0.85">
<use xlink:href="#glyph-1-2" x="113.711" y="176.485"/>
</g>
<g fill="rgb(23.922729%, 20.783997%, 18.824768%)" fill-opacity="0.85">
<use xlink:href="#glyph-1-2" x="165.053" y="176.485"/>
</g>
<g fill="rgb(23.922729%, 20.783997%, 18.824768%)" fill-opacity="0.85">
<use xlink:href="#glyph-1-4" x="216.396" y="106.634"/>
</g>
<g fill="rgb(23.922729%, 20.783997%, 18.824768%)" fill-opacity="0.85">
<use xlink:href="#glyph-1-3" x="267.738" y="71.633"/>
</g>
<g fill="rgb(23.922729%, 20.783997%, 18.824768%)" fill-opacity="0.85">
<use xlink:href="#glyph-1-3" x="74.323" y="71.633"/>
</g>
<g fill="rgb(23.922729%, 20.783997%, 18.824768%)" fill-opacity="0.85">
<use xlink:href="#glyph-1-3" x="125.666" y="71.633"/>
</g>
<g fill="rgb(23.922729%, 20.783997%, 18.824768%)" fill-opacity="0.85">
<use xlink:href="#glyph-1-4" x="177.008" y="106.634"/>
</g>
<g fill="rgb(23.922729%, 20.783997%, 18.824768%)" fill-opacity="0.85">
<use xlink:href="#glyph-1-2" x="228.351" y="176.485"/>
</g>
<g fill="rgb(23.922729%, 20.783997%, 18.824768%)" fill-opacity="0.85">
<use xlink:href="#glyph-1-2" x="279.693" y="176.485"/>
</g>
<g fill="rgb(23.922729%, 20.783997%, 18.824768%)" fill-opacity="1">
<use xlink:href="#glyph-0-10" x="153.719" y="207.455"/>
</g>
<g fill="rgb(23.922729%, 20.783997%, 18.824768%)" fill-opacity="1">
<use xlink:href="#glyph-0-11" x="159.19747" y="207.455"/>
<use xlink:href="#glyph-0-12" x="163.492376" y="207.455"/>
<use xlink:href="#glyph-0-13" x="167.034104" y="207.455"/>
<use xlink:href="#glyph-0-11" x="169.95715" y="207.455"/>
<use xlink:href="#glyph-0-14" x="174.252056" y="207.455"/>
</g>
<g fill="rgb(23.922729%, 20.783997%, 18.824768%)" fill-opacity="1">
<use xlink:href="#glyph-2-0" x="17.822" y="118.637"/>
<use xlink:href="#glyph-2-1" x="17.822" y="113.92964"/>
<use xlink:href="#glyph-2-2" x="17.822" y="111.320418"/>
<use xlink:href="#glyph-2-3" x="17.822" y="106.837218"/>
<use xlink:href="#glyph-2-4" x="17.822" y="102.856136"/>
</g>
<g fill="rgb(23.922729%, 20.783997%, 18.824768%)" fill-opacity="1">
<use xlink:href="#glyph-2-5" x="17.822" y="95.629218"/>
<use xlink:href="#glyph-2-2" x="17.822" y="90.563202"/>
<use xlink:href="#glyph-2-1" x="17.822" y="86.080002"/>
<use xlink:href="#glyph-2-6" x="17.822" y="83.470779"/>
<use xlink:href="#glyph-2-7" x="17.822" y="78.06404"/>
</g>
<path fill-rule="nonzero" fill="rgb(100%, 100%, 100%)" fill-opacity="0.9" stroke-width="0.3985" stroke-linecap="butt" stroke-linejoin="miter" stroke="rgb(74.116516%, 71.958923%, 70.196533%)" stroke-opacity="1" stroke-miterlimit="10" d="M 156.785438 121.095719 L 230.637 121.095719 L 230.637 162.533219 L 156.785438 162.533219 Z M 156.785438 121.095719 " transform="matrix(1, 0, 0, -1, 63.613, 180.084)"/>
<path fill-rule="nonzero" fill="rgb(72.155762%, 59.999084%, 36.863708%)" fill-opacity="0.85" stroke-width="0.3985" stroke-linecap="butt" stroke-linejoin="miter" stroke="rgb(57.725525%, 47.999573%, 29.489136%)" stroke-opacity="1" stroke-miterlimit="10" d="M -1.494062 -1.991844 L 1.494219 -1.991844 L 1.494219 5.976906 L -1.494062 5.976906 Z M 4.4825 -1.991844 L 7.470781 -1.991844 L 7.470781 3.984719 L 4.4825 3.984719 Z M 4.4825 -1.991844 " transform="matrix(1, 0, 0, -1, 225.08, 25.723)"/>
<g fill="rgb(0%, 0%, 0%)" fill-opacity="1">
<use xlink:href="#glyph-3-0" x="234.843" y="27.879"/>
</g>
<g fill="rgb(0%, 0%, 0%)" fill-opacity="1">
<use xlink:href="#glyph-4-0" x="238.043" y="29.31"/>
</g>
<g fill="rgb(0%, 0%, 0%)" fill-opacity="1">
<use xlink:href="#glyph-5-0" x="243.523" y="27.879"/>
</g>
<g fill="rgb(0%, 0%, 0%)" fill-opacity="1">
<use xlink:href="#glyph-3-1" x="246.408176" y="27.879"/>
</g>
<g fill="rgb(0%, 0%, 0%)" fill-opacity="1">
<use xlink:href="#glyph-4-0" x="250.496" y="29.31"/>
</g>
<g fill="rgb(0%, 0%, 0%)" fill-opacity="1">
<use xlink:href="#glyph-6-0" x="255.633" y="27.879"/>
</g>
<g fill="rgb(0%, 0%, 0%)" fill-opacity="1">
<use xlink:href="#glyph-3-1" x="263.973495" y="27.879"/>
</g>
<g fill="rgb(0%, 0%, 0%)" fill-opacity="1">
<use xlink:href="#glyph-4-1" x="268.058" y="29.22"/>
</g>
<g fill="rgb(0%, 0%, 0%)" fill-opacity="1">
<use xlink:href="#glyph-7-0" x="273.858" y="27.879"/>
</g>
<g fill="rgb(0%, 0%, 0%)" fill-opacity="1">
<use xlink:href="#glyph-5-1" x="282.62888" y="27.879"/>
<use xlink:href="#glyph-5-2" x="286.61393" y="27.879"/>
</g>
<path fill-rule="nonzero" fill="rgb(67.843628%, 51.763916%, 50.193787%)" fill-opacity="0.85" stroke-width="0.3985" stroke-linecap="butt" stroke-linejoin="miter" stroke="rgb(54.275513%, 41.410828%, 40.156555%)" stroke-opacity="1" stroke-miterlimit="10" d="M -1.494062 -1.99225 L 1.494219 -1.99225 L 1.494219 5.9765 L -1.494062 5.9765 Z M 4.4825 -1.99225 L 7.470781 -1.99225 L 7.470781 3.984313 L 4.4825 3.984313 Z M 4.4825 -1.99225 " transform="matrix(1, 0, 0, -1, 225.08, 38.539)"/>
<g fill="rgb(0%, 0%, 0%)" fill-opacity="1">
<use xlink:href="#glyph-3-0" x="234.843" y="40.695"/>
</g>
<g fill="rgb(0%, 0%, 0%)" fill-opacity="1">
<use xlink:href="#glyph-4-1" x="238.043" y="42.036"/>
</g>
<g fill="rgb(0%, 0%, 0%)" fill-opacity="1">
<use xlink:href="#glyph-5-0" x="243.523" y="40.695"/>
</g>
<g fill="rgb(0%, 0%, 0%)" fill-opacity="1">
<use xlink:href="#glyph-3-1" x="246.408176" y="40.695"/>
</g>
<g fill="rgb(0%, 0%, 0%)" fill-opacity="1">
<use xlink:href="#glyph-4-0" x="250.496" y="42.126"/>
</g>
<g fill="rgb(0%, 0%, 0%)" fill-opacity="1">
<use xlink:href="#glyph-7-0" x="256.297" y="40.695"/>
</g>
<g fill="rgb(0%, 0%, 0%)" fill-opacity="1">
<use xlink:href="#glyph-5-3" x="265.06788" y="40.695"/>
<use xlink:href="#glyph-5-2" x="269.05293" y="40.695"/>
</g>
<path fill-rule="nonzero" fill="rgb(47.840881%, 60.392761%, 49.412537%)" fill-opacity="0.85" stroke-width="0.3985" stroke-linecap="butt" stroke-linejoin="miter" stroke="rgb(38.273621%, 48.313904%, 39.529419%)" stroke-opacity="1" stroke-miterlimit="10" d="M -1.494062 -1.992656 L 1.494219 -1.992656 L 1.494219 5.976094 L -1.494062 5.976094 Z M 4.4825 -1.992656 L 7.470781 -1.992656 L 7.470781 3.983906 L 4.4825 3.983906 Z M 4.4825 -1.992656 " transform="matrix(1, 0, 0, -1, 225.08, 51.355)"/>
<g fill="rgb(0%, 0%, 0%)" fill-opacity="1">
<use xlink:href="#glyph-3-0" x="234.843" y="53.511"/>
</g>
<g fill="rgb(0%, 0%, 0%)" fill-opacity="1">
<use xlink:href="#glyph-4-2" x="238.043" y="54.852"/>
</g>
<g fill="rgb(0%, 0%, 0%)" fill-opacity="1">
<use xlink:href="#glyph-5-0" x="243.523" y="53.511"/>
</g>
<g fill="rgb(0%, 0%, 0%)" fill-opacity="1">
<use xlink:href="#glyph-3-1" x="246.408176" y="53.511"/>
</g>
<g fill="rgb(0%, 0%, 0%)" fill-opacity="1">
<use xlink:href="#glyph-4-1" x="250.497" y="54.852"/>
</g>
<g fill="rgb(0%, 0%, 0%)" fill-opacity="1">
<use xlink:href="#glyph-7-0" x="256.297" y="53.511"/>
</g>
<g fill="rgb(0%, 0%, 0%)" fill-opacity="1">
<use xlink:href="#glyph-5-3" x="265.06788" y="53.511"/>
<use xlink:href="#glyph-5-2" x="269.05293" y="53.511"/>
</g>
</svg>
